<?xml version="1.0" encoding="UTF-8" standalone="no"?>
<svg width="391px" height="391px" viewBox="0 0 391 391" version="1.1" xmlns="http://www.w3.org/2000/svg" xmlns:xlink="http://www.w3.org/1999/xlink">
    <!-- Generator: Sketch 3.6.1 (26313) - http://www.bohemiancoding.com/sketch -->
    <title>Artboard 1</title>
    <desc>Created with Sketch.</desc>
    <defs></defs>
    <g id="Page-1" stroke="none" stroke-width="1" fill="none" fill-rule="evenodd">
        <g id="Artboard-1">
            <circle id="Oval-1" fill="#E74C3C" cx="196.5" cy="196.5" r="192.5"></circle>
            <path d="M97.97,187.83 L97.97,145.62 L134.09,145.62 C141.650038,145.62 147.319981,147.264984 151.1,150.555 C154.880019,153.845016 156.77,159.129964 156.77,166.41 C156.77,173.970038 154.880019,179.429983 151.1,182.79 C147.319981,186.150017 141.650038,187.83 134.09,187.83 L97.97,187.83 Z M65,120 L65,269.94 L97.97,269.94 L97.97,211.35 L130.94,211.35 C139.200041,211.35 145.149982,213.169982 148.79,216.81 C152.430018,220.450018 154.809994,226.189961 155.93,234.03 C156.770004,240.05003 157.399998,246.349967 157.82,252.93 C158.240002,259.510033 159.359991,265.179976 161.18,269.94 L194.15,269.94 C192.609992,267.83999 191.455004,265.285015 190.685,262.275 C189.914996,259.264985 189.355002,256.080017 189.005,252.72 C188.654998,249.359983 188.410001,246.070016 188.27,242.85 C188.129999,239.629984 187.990001,236.830012 187.85,234.45 C187.569999,230.669981 187.045004,226.890019 186.275,223.11 C185.504996,219.329981 184.280008,215.865016 182.6,212.715 C180.919992,209.564984 178.750013,206.835012 176.09,204.525 C173.429987,202.214988 170.07002,200.500006 166.01,199.38 L166.01,198.96 C174.410042,195.599983 180.464981,190.700032 184.175,184.26 C187.885019,177.819968 189.74,170.190044 189.74,161.37 C189.74,155.629971 188.72501,150.275025 186.695,145.305 C184.66499,140.334975 181.725019,135.960019 177.875,132.18 C174.024981,128.399981 169.405027,125.425011 164.015,123.255 C158.624973,121.084989 152.570034,120 145.85,120 L65,120 Z M249.59,242.22 L249.59,147.72 L273.11,147.72 C281.230041,147.72 288.054972,148.874988 293.585,151.185 C299.115028,153.495012 303.559983,156.819978 306.92,161.16 C310.280017,165.500022 312.694993,170.71497 314.165,176.805 C315.635007,182.89503 316.37,189.719962 316.37,197.28 C316.37,205.540041 315.32001,212.539971 313.22,218.28 C311.119989,224.020029 308.320017,228.674982 304.82,232.245 C301.319982,235.815018 297.330022,238.369992 292.85,239.91 C288.369978,241.450008 283.750024,242.22 278.99,242.22 L249.59,242.22 Z M216.62,120 L216.62,269.94 L281.3,269.94 C292.780057,269.94 302.754958,268.015019 311.225,264.165 C319.695042,260.314981 326.764972,255.030034 332.435,248.31 C338.105028,241.589966 342.339986,233.610046 345.14,224.37 C347.940014,215.129954 349.34,205.050055 349.34,194.13 C349.34,181.669938 347.625017,170.820046 344.195,161.58 C340.764983,152.339954 336.00503,144.640031 329.915,138.48 C323.82497,132.319969 316.615042,127.700015 308.285,124.62 C299.954958,121.539985 290.960048,120 281.3,120 L216.62,120 Z" id="RD" fill="#FFFFFF"></path>
        </g>
    </g>
</svg>