<?xml version="1.0" encoding="UTF-8" standalone="no"?>
<svg width="391px" height="391px" viewBox="0 0 391 391" version="1.1" xmlns="http://www.w3.org/2000/svg" xmlns:xlink="http://www.w3.org/1999/xlink">
    <!-- Generator: Sketch 3.6.1 (26313) - http://www.bohemiancoding.com/sketch -->
    <title>Artboard 1</title>
    <desc>Created with Sketch.</desc>
    <defs></defs>
    <g id="Page-1" stroke="none" stroke-width="1" fill="none" fill-rule="evenodd">
        <g id="Artboard-1" fill="#F1C40F">
            <g id="exclamation-circle" transform="translate(4.000000, 4.000000)">
                <path d="M190.8143,0.546464017 C225.432515,0.546464017 257.359131,9.06620865 286.594133,26.1057276 C315.829135,43.1452465 338.976966,66.2643787 356.037611,95.4631689 C373.09827,124.661944 381.6286,156.548983 381.6286,191.124315 C381.6286,225.699633 373.09827,257.586686 356.037611,286.785462 C338.976966,315.984237 315.829135,339.103384 286.594133,356.142888 C257.359131,373.182407 225.432515,381.702152 190.8143,381.702152 C156.196085,381.702152 124.26947,373.182407 95.0344675,356.142888 C65.7994654,339.103384 42.6516345,315.984237 25.5909748,286.785462 C8.53032987,257.586686 0,225.699633 0,191.124315 C0,156.548983 8.53032987,124.661944 25.5909748,95.4631689 C42.6516345,66.2643787 65.7994654,43.1452465 95.0344675,26.1057276 C124.26947,9.06620865 156.196085,0.546464017 190.8143,0.546464017 L190.8143,0.546464017 Z M222.616681,309.98732 L222.616681,262.839147 C222.616681,260.523097 221.871316,258.579275 220.380571,257.007666 C218.88984,255.436058 217.067827,254.650261 214.914545,254.650261 L167.210966,254.650261 C165.057684,254.650261 163.152857,255.477413 161.49647,257.131747 C159.840098,258.786067 159.011919,260.688534 159.011919,262.839147 L159.011919,309.98732 C159.011919,312.137933 159.840098,314.0404 161.49647,315.69472 C163.152857,317.349054 165.057684,318.176206 167.210966,318.176206 L214.914545,318.176206 C217.067827,318.176206 218.88984,317.390409 220.380571,315.818801 C221.871316,314.247192 222.616681,312.30337 222.616681,309.98732 L222.616681,309.98732 Z M222.119771,224.624318 L226.591977,70.5242659 C226.591977,68.5390736 225.763798,67.0501905 224.107411,66.0576018 C222.451039,64.7341402 220.463399,64.0724095 218.144475,64.0724095 L163.484125,64.0724095 C161.165201,64.0724095 159.177546,64.7341402 157.521174,66.0576018 C155.864802,67.0501905 155.036624,68.5390736 155.036624,70.5242659 L159.260374,224.624318 C159.260374,226.278638 160.088553,227.72618 161.74494,228.966916 C163.401312,230.207652 165.388952,230.828027 167.707876,230.828027 L213.672254,230.828027 C215.991178,230.828027 217.937427,230.207652 219.510985,228.966916 C221.084529,227.72618 221.954129,226.278638 222.119771,224.624318 L222.119771,224.624318 Z" id="Shape"></path>
            </g>
        </g>
    </g>
</svg>